<svg id="SvgjsSvg1000" xmlns="http://www.w3.org/2000/svg" version="1.1" xmlns:xlink="http://www.w3.org/1999/xlink" xmlns:svgjs="http://svgjs.com/svgjs" width="59.89999997615814" height="37.89999997615814" viewBox="0 0 59.89999997615814 37.89999997615814"><title>noun_143494_cc</title><desc>Created with Avocode.</desc><defs id="SvgjsDefs1001"></defs><path id="SvgjsPath1007" d="M1364.45 605.11C1363.94 604.42 1363.1200000000001 603.98 1362.1100000000001 603.91C1361.0300000000002 603.85 1359.89 604.1 1358.63 604.8C1356.2900000000002 606.05 1355.0200000000002 608.01 1353.89 609.77C1352.94 611.15 1352.1200000000001 612.41 1350.98 612.98C1348.95 613.9200000000001 1346.8 613.16 1345.66 611.09C1345.41 610.65 1345.16 610.08 1344.8400000000001 609.26C1344.7800000000002 608.95 1344.7200000000003 608.63 1344.65 608.3199999999999C1344.27 607.1199999999999 1343.89 605.68 1343.45 604.29C1343.07 603.03 1342.76 601.8399999999999 1342.44 600.8299999999999C1341.8700000000001 599.0699999999999 1340.54 597.9999999999999 1338.8300000000002 597.9999999999999C1338.3300000000002 597.9999999999999 1337.7600000000002 598.1299999999999 1337.19 598.3099999999998C1336.05 598.6899999999998 1335.23 599.4499999999998 1334.72 600.4499999999998C1334.53 600.8299999999998 1334.47 601.2099999999998 1334.41 601.5899999999998C1333.77 601.1499999999997 1333.0800000000002 600.9599999999998 1332.26 600.9599999999998C1331.5 600.9599999999998 1330.74 601.1499999999999 1329.92 601.5199999999998C1328.78 602.0899999999998 1327.96 603.0299999999997 1327.5800000000002 604.1699999999997C1327.5100000000002 604.4799999999997 1327.45 604.7299999999997 1327.39 605.0499999999997C1326.69 604.5399999999997 1325.93 604.2899999999997 1325.1100000000001 604.2899999999997C1324.2900000000002 604.2899999999997 1323.4 604.5399999999997 1322.5800000000002 605.0499999999997C1321.5700000000002 605.6799999999997 1320.8700000000001 606.6799999999997 1320.6200000000001 607.8199999999997C1320.5600000000002 608.0699999999997 1320.5600000000002 608.3799999999997 1320.5600000000002 608.6299999999997C1317.5200000000002 604.9199999999996 1314.0400000000002 600.6399999999996 1313.6000000000001 600.1399999999996C1312.46 598.8199999999996 1310.69 598.6299999999997 1309.2400000000002 599.6399999999996C1307.8400000000001 600.6399999999996 1307.5900000000001 602.5299999999996 1308.6700000000003 603.9799999999997C1308.8600000000004 604.2299999999997 1309.3000000000004 604.8599999999997 1309.9300000000003 605.7399999999997C1312.5200000000002 609.2599999999996 1317.8400000000004 616.5599999999997 1319.6100000000004 619.1399999999996C1320.9400000000003 621.0299999999996 1321.3800000000003 622.2299999999997 1321.8800000000003 623.7399999999997C1322.2600000000004 624.6799999999997 1322.6400000000003 625.7499999999997 1323.3400000000004 627.1999999999997C1324.9200000000003 630.4699999999997 1327.7000000000003 632.9899999999997 1331.1800000000003 634.1799999999997C1332.7000000000003 634.6899999999997 1334.2800000000002 634.9999999999998 1335.8000000000002 634.9999999999998C1337.8200000000002 634.9999999999998 1339.91 634.5599999999997 1341.8100000000002 633.6199999999998C1346.68 631.2899999999997 1349.7800000000002 628.1999999999998 1352.5600000000002 625.4399999999998C1353.63 624.3699999999998 1354.65 623.3599999999998 1355.7200000000003 622.4099999999999C1357.4900000000002 620.8399999999998 1358.8800000000003 618.0699999999998 1360.2100000000003 615.4299999999998C1361.2900000000002 613.2899999999998 1362.3000000000002 611.2799999999999 1363.3100000000002 610.2699999999999C1365.0800000000002 608.6299999999999 1365.4600000000003 606.5599999999998 1364.4500000000003 605.1099999999999ZM1335.99 600.96C1336.3 600.33 1336.8700000000001 599.82 1337.63 599.51C1338.0100000000002 599.38 1338.45 599.3199999999999 1338.8300000000002 599.3199999999999C1339.9700000000003 599.3199999999999 1340.7900000000002 600.01 1341.17 601.2099999999999C1341.49 602.2199999999999 1341.8100000000002 603.41 1342.19 604.67C1342.5700000000002 606.05 1343.01 607.5 1343.39 608.6999999999999C1343.89 610.27 1343.45 611.15 1341.93 611.65C1341.55 611.78 1341.24 611.84 1340.92 611.84C1340.04 611.84 1339.4 611.2800000000001 1338.96 610.21C1338.64 609.45 1338.26 608.57 1337.89 607.69C1337.25 606.24 1336.5600000000002 604.61 1335.92 603.0300000000001C1335.67 602.34 1335.73 601.59 1335.99 600.96ZM1328.97 604.48C1329.22 603.66 1329.79 603.03 1330.6100000000001 602.59C1331.18 602.2800000000001 1331.7500000000002 602.15 1332.3200000000002 602.15C1333.4600000000003 602.15 1334.2800000000002 602.78 1334.8500000000001 603.98C1335.3600000000001 605.0500000000001 1335.8600000000001 606.37 1336.43 607.75C1337.0600000000002 609.2 1337.7 610.77 1338.26 612.03C1339.09 613.79 1338.71 614.8 1337.06 615.62C1336.56 615.87 1336.11 616 1335.6699999999998 616C1334.7899999999997 616 1334.09 615.49 1333.4599999999998 614.42C1333.2099999999998 614.05 1333.0199999999998 613.61 1332.6999999999998 613.16C1331.5599999999997 611.2099999999999 1330.2999999999997 609.01 1329.1599999999999 606.87C1328.7799999999997 606.12 1328.7099999999998 605.3 1328.9699999999998 604.48ZM1322.07 608.01C1322.26 607.25 1322.71 606.56 1323.3999999999999 606.12C1323.9699999999998 605.74 1324.6 605.55 1325.1699999999998 605.55C1326.12 605.55 1327.0099999999998 606.12 1327.58 607.1899999999999C1328.1499999999999 608.1899999999999 1328.84 609.4499999999999 1329.54 610.77C1330.3 612.16 1331.05 613.67 1331.75 614.8C1332.7 616.4399999999999 1332.51 617.51 1331.05 618.39C1330.55 618.6999999999999 1330.04 618.89 1329.6 618.89C1328.84 618.89 1328.1499999999999 618.39 1327.4499999999998 617.51C1327.1999999999998 617.13 1326.8799999999999 616.75 1326.6299999999999 616.31C1325.3 614.4899999999999 1323.84 612.3499999999999 1322.4499999999998 610.3299999999999C1322.0699999999997 609.6399999999999 1321.8799999999999 608.8199999999999 1322.0699999999997 608.0099999999999ZM1362.49 609.2C1361.29 610.33 1360.21 612.47 1359.07 614.74C1357.81 617.32 1356.48 619.96 1354.8999999999999 621.35C1353.7599999999998 622.2900000000001 1352.7499999999998 623.36 1351.6699999999998 624.4300000000001C1348.8899999999999 627.2 1345.9799999999998 630.09 1341.3 632.36C1338.26 633.8000000000001 1334.9099999999999 633.99 1331.75 632.86C1328.59 631.73 1326.12 629.53 1324.67 626.57C1324.03 625.25 1323.66 624.1800000000001 1323.28 623.23C1322.71 621.72 1322.2 620.4 1320.81 618.32C1319.04 615.74 1313.6599999999999 608.38 1311.07 604.86C1310.4399999999998 603.98 1309.99 603.41 1309.8 603.1C1309.1699999999998 602.22 1309.3 601.21 1310.06 600.64C1310.8799999999999 600.01 1311.8899999999999 600.14 1312.59 600.96C1313.35 601.84 1323.53 614.36 1323.97 614.9300000000001C1324.48 615.6800000000001 1325.05 616.44 1325.55 617.1300000000001C1325.87 617.5700000000002 1326.12 617.9500000000002 1326.37 618.3200000000002C1327.32 619.6500000000002 1328.3999999999999 620.3400000000001 1329.6 620.3400000000001C1330.3 620.3400000000001 1331.05 620.0900000000001 1331.75 619.6500000000001C1332.95 618.8900000000001 1333.58 617.95 1333.65 616.8100000000001C1334.15 617.19 1334.7900000000002 617.3800000000001 1335.5500000000002 617.3800000000001C1336.1800000000003 617.3800000000001 1336.8700000000001 617.2600000000001 1337.5700000000002 616.8800000000001C1339.3400000000001 616.0000000000001 1339.7800000000002 614.7400000000001 1339.5900000000001 613.1000000000001C1339.91 613.2300000000001 1340.2300000000002 613.2300000000001 1340.2300000000002 613.2300000000001C1340.8600000000004 613.2300000000001 1341.4900000000002 613.1600000000001 1342.0000000000002 612.9800000000001C1343.0100000000002 612.6600000000001 1343.7700000000002 612.1600000000001 1344.1500000000003 611.5900000000001C1344.1500000000003 611.6500000000001 1344.2700000000002 611.7200000000001 1344.2700000000002 611.7200000000001C1345.7300000000002 614.4200000000002 1348.7000000000003 615.4300000000002 1351.3600000000001 614.1700000000002C1352.8100000000002 613.4800000000001 1353.8200000000002 612.0300000000002 1354.8300000000002 610.5200000000002C1355.9700000000003 608.8200000000002 1357.1100000000001 607.1200000000002 1359.14 605.9900000000002C1360.91 605.0500000000002 1362.49 604.9800000000002 1363.18 605.9300000000003C1363.8200000000002 606.6200000000003 1363.8200000000002 607.9400000000003 1362.49 609.2000000000003Z " fill="#ffffff" fill-opacity="1" transform="matrix(1,0,0,1,-1306.550000011921,-597.5500000119209)"></path><path id="SvgjsPath1008" d="M1364.45 605.11C1363.94 604.42 1363.1200000000001 603.98 1362.1100000000001 603.91C1361.0300000000002 603.85 1359.89 604.1 1358.63 604.8C1356.2900000000002 606.05 1355.0200000000002 608.01 1353.89 609.77C1352.94 611.15 1352.1200000000001 612.41 1350.98 612.98C1348.95 613.9200000000001 1346.8 613.16 1345.66 611.09C1345.41 610.65 1345.16 610.08 1344.8400000000001 609.26C1344.7800000000002 608.95 1344.7200000000003 608.63 1344.65 608.3199999999999C1344.27 607.1199999999999 1343.89 605.68 1343.45 604.29C1343.07 603.03 1342.76 601.8399999999999 1342.44 600.8299999999999C1341.8700000000001 599.0699999999999 1340.54 597.9999999999999 1338.8300000000002 597.9999999999999C1338.3300000000002 597.9999999999999 1337.7600000000002 598.1299999999999 1337.19 598.3099999999998C1336.05 598.6899999999998 1335.23 599.4499999999998 1334.72 600.4499999999998C1334.53 600.8299999999998 1334.47 601.2099999999998 1334.41 601.5899999999998C1333.77 601.1499999999997 1333.0800000000002 600.9599999999998 1332.26 600.9599999999998C1331.5 600.9599999999998 1330.74 601.1499999999999 1329.92 601.5199999999998C1328.78 602.0899999999998 1327.96 603.0299999999997 1327.5800000000002 604.1699999999997C1327.5100000000002 604.4799999999997 1327.45 604.7299999999997 1327.39 605.0499999999997C1326.69 604.5399999999997 1325.93 604.2899999999997 1325.1100000000001 604.2899999999997C1324.2900000000002 604.2899999999997 1323.4 604.5399999999997 1322.5800000000002 605.0499999999997C1321.5700000000002 605.6799999999997 1320.8700000000001 606.6799999999997 1320.6200000000001 607.8199999999997C1320.5600000000002 608.0699999999997 1320.5600000000002 608.3799999999997 1320.5600000000002 608.6299999999997C1317.5200000000002 604.9199999999996 1314.0400000000002 600.6399999999996 1313.6000000000001 600.1399999999996C1312.46 598.8199999999996 1310.69 598.6299999999997 1309.2400000000002 599.6399999999996C1307.8400000000001 600.6399999999996 1307.5900000000001 602.5299999999996 1308.6700000000003 603.9799999999997C1308.8600000000004 604.2299999999997 1309.3000000000004 604.8599999999997 1309.9300000000003 605.7399999999997C1312.5200000000002 609.2599999999996 1317.8400000000004 616.5599999999997 1319.6100000000004 619.1399999999996C1320.9400000000003 621.0299999999996 1321.3800000000003 622.2299999999997 1321.8800000000003 623.7399999999997C1322.2600000000004 624.6799999999997 1322.6400000000003 625.7499999999997 1323.3400000000004 627.1999999999997C1324.9200000000003 630.4699999999997 1327.7000000000003 632.9899999999997 1331.1800000000003 634.1799999999997C1332.7000000000003 634.6899999999997 1334.2800000000002 634.9999999999998 1335.8000000000002 634.9999999999998C1337.8200000000002 634.9999999999998 1339.91 634.5599999999997 1341.8100000000002 633.6199999999998C1346.68 631.2899999999997 1349.7800000000002 628.1999999999998 1352.5600000000002 625.4399999999998C1353.63 624.3699999999998 1354.65 623.3599999999998 1355.7200000000003 622.4099999999999C1357.4900000000002 620.8399999999998 1358.8800000000003 618.0699999999998 1360.2100000000003 615.4299999999998C1361.2900000000002 613.2899999999998 1362.3000000000002 611.2799999999999 1363.3100000000002 610.2699999999999C1365.0800000000002 608.6299999999999 1365.4600000000003 606.5599999999998 1364.4500000000003 605.1099999999999ZM1335.99 600.96C1336.3 600.33 1336.8700000000001 599.82 1337.63 599.51C1338.0100000000002 599.38 1338.45 599.3199999999999 1338.8300000000002 599.3199999999999C1339.9700000000003 599.3199999999999 1340.7900000000002 600.01 1341.17 601.2099999999999C1341.49 602.2199999999999 1341.8100000000002 603.41 1342.19 604.67C1342.5700000000002 606.05 1343.01 607.5 1343.39 608.6999999999999C1343.89 610.27 1343.45 611.15 1341.93 611.65C1341.55 611.78 1341.24 611.84 1340.92 611.84C1340.04 611.84 1339.4 611.2800000000001 1338.96 610.21C1338.64 609.45 1338.26 608.57 1337.89 607.69C1337.25 606.24 1336.5600000000002 604.61 1335.92 603.0300000000001C1335.67 602.34 1335.73 601.59 1335.99 600.96ZM1328.97 604.48C1329.22 603.66 1329.79 603.03 1330.6100000000001 602.59C1331.18 602.2800000000001 1331.7500000000002 602.15 1332.3200000000002 602.15C1333.4600000000003 602.15 1334.2800000000002 602.78 1334.8500000000001 603.98C1335.3600000000001 605.0500000000001 1335.8600000000001 606.37 1336.43 607.75C1337.0600000000002 609.2 1337.7 610.77 1338.26 612.03C1339.09 613.79 1338.71 614.8 1337.06 615.62C1336.56 615.87 1336.11 616 1335.6699999999998 616C1334.7899999999997 616 1334.09 615.49 1333.4599999999998 614.42C1333.2099999999998 614.05 1333.0199999999998 613.61 1332.6999999999998 613.16C1331.5599999999997 611.2099999999999 1330.2999999999997 609.01 1329.1599999999999 606.87C1328.7799999999997 606.12 1328.7099999999998 605.3 1328.9699999999998 604.48ZM1322.07 608.01C1322.26 607.25 1322.71 606.56 1323.3999999999999 606.12C1323.9699999999998 605.74 1324.6 605.55 1325.1699999999998 605.55C1326.12 605.55 1327.0099999999998 606.12 1327.58 607.1899999999999C1328.1499999999999 608.1899999999999 1328.84 609.4499999999999 1329.54 610.77C1330.3 612.16 1331.05 613.67 1331.75 614.8C1332.7 616.4399999999999 1332.51 617.51 1331.05 618.39C1330.55 618.6999999999999 1330.04 618.89 1329.6 618.89C1328.84 618.89 1328.1499999999999 618.39 1327.4499999999998 617.51C1327.1999999999998 617.13 1326.8799999999999 616.75 1326.6299999999999 616.31C1325.3 614.4899999999999 1323.84 612.3499999999999 1322.4499999999998 610.3299999999999C1322.0699999999997 609.6399999999999 1321.8799999999999 608.8199999999999 1322.0699999999997 608.0099999999999ZM1362.49 609.2C1361.29 610.33 1360.21 612.47 1359.07 614.74C1357.81 617.32 1356.48 619.96 1354.8999999999999 621.35C1353.7599999999998 622.2900000000001 1352.7499999999998 623.36 1351.6699999999998 624.4300000000001C1348.8899999999999 627.2 1345.9799999999998 630.09 1341.3 632.36C1338.26 633.8000000000001 1334.9099999999999 633.99 1331.75 632.86C1328.59 631.73 1326.12 629.53 1324.67 626.57C1324.03 625.25 1323.66 624.1800000000001 1323.28 623.23C1322.71 621.72 1322.2 620.4 1320.81 618.32C1319.04 615.74 1313.6599999999999 608.38 1311.07 604.86C1310.4399999999998 603.98 1309.99 603.41 1309.8 603.1C1309.1699999999998 602.22 1309.3 601.21 1310.06 600.64C1310.8799999999999 600.01 1311.8899999999999 600.14 1312.59 600.96C1313.35 601.84 1323.53 614.36 1323.97 614.9300000000001C1324.48 615.6800000000001 1325.05 616.44 1325.55 617.1300000000001C1325.87 617.5700000000002 1326.12 617.9500000000002 1326.37 618.3200000000002C1327.32 619.6500000000002 1328.3999999999999 620.3400000000001 1329.6 620.3400000000001C1330.3 620.3400000000001 1331.05 620.0900000000001 1331.75 619.6500000000001C1332.95 618.8900000000001 1333.58 617.95 1333.65 616.8100000000001C1334.15 617.19 1334.7900000000002 617.3800000000001 1335.5500000000002 617.3800000000001C1336.1800000000003 617.3800000000001 1336.8700000000001 617.2600000000001 1337.5700000000002 616.8800000000001C1339.3400000000001 616.0000000000001 1339.7800000000002 614.7400000000001 1339.5900000000001 613.1000000000001C1339.91 613.2300000000001 1340.2300000000002 613.2300000000001 1340.2300000000002 613.2300000000001C1340.8600000000004 613.2300000000001 1341.4900000000002 613.1600000000001 1342.0000000000002 612.9800000000001C1343.0100000000002 612.6600000000001 1343.7700000000002 612.1600000000001 1344.1500000000003 611.5900000000001C1344.1500000000003 611.6500000000001 1344.2700000000002 611.7200000000001 1344.2700000000002 611.7200000000001C1345.7300000000002 614.4200000000002 1348.7000000000003 615.4300000000002 1351.3600000000001 614.1700000000002C1352.8100000000002 613.4800000000001 1353.8200000000002 612.0300000000002 1354.8300000000002 610.5200000000002C1355.9700000000003 608.8200000000002 1357.1100000000001 607.1200000000002 1359.14 605.9900000000002C1360.91 605.0500000000002 1362.49 604.9800000000002 1363.18 605.9300000000003C1363.8200000000002 606.6200000000003 1363.8200000000002 607.9400000000003 1362.49 609.2000000000003Z " fill-opacity="0" fill="#ffffff" stroke-dasharray="0" stroke-linejoin="miter" stroke-linecap="butt" stroke-opacity="1" stroke="#ffffff" stroke-miterlimit="50" stroke-width="0.8999999761581421" transform="matrix(1,0,0,1,-1306.550000011921,-597.5500000119209)"></path></svg>