<svg id="SvgjsSvg1011" xmlns="http://www.w3.org/2000/svg" version="1.1" xmlns:xlink="http://www.w3.org/1999/xlink" xmlns:svgjs="http://svgjs.com/svgjs" width="26" height="26" viewBox="0 0 26 26"><title>Instagram</title><desc>Created with Avocode.</desc><defs id="SvgjsDefs1012"></defs><path id="SvgjsPath1013" d="M824.04 4875C822.36 4875 821 4876.38 821 4878.08V4897.86C821 4899.5599999999995 822.36 4900.929999999999 824.04 4900.929999999999H843.5699999999999C845.2499999999999 4900.929999999999 846.6099999999999 4899.5599999999995 846.6099999999999 4897.86V4878.08C846.6099999999999 4876.38 845.2499999999999 4875 843.5699999999999 4875ZM840.21 4878.24H842.61C843.0500000000001 4878.24 843.41 4878.599999999999 843.41 4879.05V4881.4800000000005C843.41 4881.93 843.05 4882.290000000001 842.61 4882.290000000001H840.21C839.77 4882.290000000001 839.4100000000001 4881.930000000001 839.4100000000001 4881.4800000000005V4879.05C839.4100000000001 4878.6 839.7700000000001 4878.24 840.21 4878.24ZM838.76 4888C838.76 4890.74 836.56 4892.97 833.84 4892.97C831.12 4892.97 828.9100000000001 4890.740000000001 828.9100000000001 4888C828.9100000000001 4885.25 831.1200000000001 4883.02 833.84 4883.02C836.5600000000001 4883.02 838.76 4885.25 838.76 4888ZM843.41 4898.5H824.1999999999999C823.7599999999999 4898.5 823.4 4898.14 823.4 4897.69V4885.53H826.6C826.19 4886.139999999999 826.0400000000001 4887.28 826.0400000000001 4888C826.0400000000001 4892.34 829.5400000000001 4895.87 833.84 4895.87C838.13 4895.87 841.63 4892.34 841.63 4888C841.63 4887.28 841.53 4886.16 841.01 4885.53H844.21V4897.69C844.21 4898.139999999999 843.85 4898.5 843.4100000000001 4898.5Z " fill="#2a5b83" fill-opacity="1" transform="matrix(1,0,0,1,-821,-4875)"></path></svg>