<?xml version="1.0" encoding="UTF-8"?>
<svg width="40px" height="32px" viewBox="0 0 40 32" version="1.1" xmlns="http://www.w3.org/2000/svg" xmlns:xlink="http://www.w3.org/1999/xlink">
    <!-- Generator: Sketch 41.2 (35397) - http://www.bohemiancoding.com/sketch -->
    <title>10</title>
    <desc>Created with Sketch.</desc>
    <defs>
        <linearGradient x1="50%" y1="0%" x2="50%" y2="100%" id="linearGradient-1">
            <stop stop-color="#4A93F1" offset="0%"></stop>
            <stop stop-color="#3F8AEC" offset="100%"></stop>
        </linearGradient>
    </defs>
    <g id="Page-1" stroke="none" stroke-width="1" fill="none" fill-rule="evenodd" stroke-linecap="square">
        <g id="Desktop-HD-Copy" transform="translate(-720.000000, -2735.000000)" stroke="url(#linearGradient-1)" stroke-width="2">
            <g id="10" transform="translate(721.000000, 2736.000000)">
                <path d="M8,24 L8,29.009222 C8,29.5564136 8.44892021,30 9.00748397,30 L23,30 L23,24 L8,24 Z M23,24 L23,30 L36.992516,30 C37.5489341,30 38,29.5490248 38,29.009222 L38,24.990778 C38,24.4435864 37.5510798,24 36.992516,24 L23,24 Z M23,12 L9,12 C8.448,12 8,12.384 8,12.8571429 L8,18 L23,18 L23,12 L23,12 Z M23,12 L23,18 L36.992516,18 C37.5489341,18 38,17.5490248 38,17.009222 L38,12.990778 C38,12.4435864 37.5510798,12 36.992516,12 L23,12 Z M1.00748397,18 C0.451065935,18 -4.15294751e-09,18.4509752 -3.74897564e-09,18.990778 L-7.41695223e-10,23.009222 C-3.32193822e-10,23.5564136 0.448920205,24 1.00748397,24 L15,24 L15,18 L1.00748397,18 Z M15,24 L30,24 L30,18 L15,18 L15,24 Z M29,6 L16,6 C15.448,6 15,6.384 15,6.85714286 L15,12 L30,12 L30,6.85714286 C30,6.384 29.552,6 29,6 L29,6 Z M1.00684547,6 C0.450780073,6 -3.8191672e-14,6.45097518 -3.8191672e-14,6.99077797 L-3.8191672e-14,11.009222 C-3.8191672e-14,11.5564136 0.448920205,12 1.00748397,12 L15,12 L15,6.85714286 C15,6.384 14.552,6 14,6 L1.00684547,6 Z M9.00748397,0 C8.45106594,0 8,0.45097518 8,0.990777969 L8,6 L23,6 L23,0.990777969 C23,0.443586406 22.5510798,0 21.992516,0 L9.00748397,0 Z" id="Imported-Layers"></path>
            </g>
        </g>
    </g>
</svg>