<?xml version="1.0" encoding="UTF-8"?>
<svg width="42px" height="33px" viewBox="0 0 42 33" version="1.1" xmlns="http://www.w3.org/2000/svg" xmlns:xlink="http://www.w3.org/1999/xlink">
    <!-- Generator: Sketch 41.2 (35397) - http://www.bohemiancoding.com/sketch -->
    <title>2</title>
    <desc>Created with Sketch.</desc>
    <defs>
        <linearGradient x1="100%" y1="-148.870076%" x2="26.6449347%" y2="252.458225%" id="linearGradient-1">
            <stop stop-color="#5EA3FC" offset="0%"></stop>
            <stop stop-color="#2C7BE2" offset="100%"></stop>
        </linearGradient>
    </defs>
    <g id="Page-1" stroke="none" stroke-width="1" fill="none" fill-rule="evenodd">
        <g id="Desktop-HD-Copy" transform="translate(-699.000000, -982.000000)" stroke="url(#linearGradient-1)" stroke-width="2">
            <g id="second-screen" transform="translate(154.000000, 851.000000)">
                <g id="Group-Copy" transform="translate(410.500000, 132.000000)">
                    <g id="2" transform="translate(136.000000, 0.000000)">
                        <path d="M5,31 L0.999653474,31 C0.447453783,31 -0.000192513173,30.5601869 -0.000192513071,30.0034652 L-0.000192508285,3.99653482 C-0.000192508184,3.44616384 0.447280303,3 1.00051016,3 L24.0000001,3 M8.99999997,30.0001923 C8.99999997,30.5523707 9.44371662,30.9999998 9.99980747,30.9999998 L14,30.9999997 L39,5.99999986 C39,5.99999986 39.3928571,3.43478259 38,1.99999998 C36.6071428,0.56521737 34,0.999999947 34,0.999999947 L8.99999997,25.9999997 L8.99999997,30.0001923 M32,3.00000002 L37,8.00000002 M34,5.99999999 L13,27.0000002 L34,5.99999999 M21,31 L37.0000398,31 C37.5523026,31 38,30.5553692 38,29.9991284 L38,15" id="Imported-Layers"></path>
                    </g>
                </g>
            </g>
        </g>
    </g>
</svg>