<?xml version="1.0" encoding="UTF-8"?>
<svg width="38px" height="34px" viewBox="0 0 38 34" version="1.1" xmlns="http://www.w3.org/2000/svg" xmlns:xlink="http://www.w3.org/1999/xlink">
    <!-- Generator: Sketch 41.2 (35397) - http://www.bohemiancoding.com/sketch -->
    <title>12</title>
    <desc>Created with Sketch.</desc>
    <defs>
        <linearGradient x1="100%" y1="-148.870076%" x2="26.6449347%" y2="252.458225%" id="linearGradient-1">
            <stop stop-color="#5EA3FC" offset="0%"></stop>
            <stop stop-color="#2C7BE2" offset="100%"></stop>
        </linearGradient>
    </defs>
    <g id="Page-1" stroke="none" stroke-width="1" fill="none" fill-rule="evenodd">
        <g id="Desktop-HD-Copy" transform="translate(-1110.000000, -982.000000)" stroke="url(#linearGradient-1)" stroke-width="2">
            <g id="second-screen" transform="translate(154.000000, 851.000000)">
                <g id="Group-Copy-2" transform="translate(821.000000, 132.000000)">
                    <g id="12" transform="translate(136.000000, 0.000000)">
                        <path d="M36,23 L31.5069425,5.92638148 C31.2269658,4.86247037 30.3661881,3.36618811 29.5897496,2.58974963 L27,0" id="Imported-Layers"></path>
                        <path d="M9.00000002,23 L4.50694252,5.92638148 C4.22696591,4.86247037 3.36618813,3.36618811 2.58974966,2.58974963 L2.14577085e-08,0" id="Imported-Layers" transform="translate(4.500000, 11.500000) scale(-1, 1) translate(-4.500000, -11.500000) "></path>
                        <path d="M7,25 C5.34314575,25 4,26.3431458 4,28" id="Oval-2" transform="translate(5.500000, 26.500000) scale(1, -1) translate(-5.500000, -26.500000) "></path>
                        <path d="M29,25 C27.3431458,25 26,26.3431458 26,28" id="Oval-2" transform="translate(27.500000, 26.500000) scale(1, -1) translate(-27.500000, -26.500000) "></path>
                        <circle id="Oval-4" cx="7" cy="25" r="7"></circle>
                        <circle id="Oval-4" cx="29" cy="25" r="7"></circle>
                        <path d="M22,25 C22,22.790861 20.209139,21 18,21 C15.790861,21 14,22.790861 14,25" id="Oval-6"></path>
                    </g>
                </g>
            </g>
        </g>
    </g>
</svg>