<svg id="SvgjsSvg1000" xmlns="http://www.w3.org/2000/svg" version="1.1" xmlns:xlink="http://www.w3.org/1999/xlink" xmlns:svgjs="http://svgjs.com/svgjs" width="26" height="26" viewBox="0 0 26 26"><title>Facebook</title><desc>Created with Avocode.</desc><defs id="SvgjsDefs1001"></defs><path id="SvgjsPath1007" d="M700.65 4899.53C700.65 4900.32 700.01 4900.969999999999 699.23 4900.969999999999H692.7V4890.909999999999H696.0300000000001L696.5300000000001 4886.989999999999H692.7V4884.489999999999C692.7 4883.359999999999 693.01 4882.579999999999 694.61 4882.579999999999H696.66V4879.079999999999C696.31 4879.029999999999 695.0899999999999 4878.919999999999 693.68 4878.919999999999C690.7199999999999 4878.919999999999 688.6999999999999 4880.749999999999 688.6999999999999 4884.099999999999V4886.99H685.3599999999999V4890.91H688.6999999999999V4900.97H676.42C675.63 4900.97 675 4900.320000000001 675 4899.530000000001V4876.43C675 4875.64 675.63 4875 676.42 4875H699.2299999999999C700.0099999999999 4875 700.6499999999999 4875.64 700.6499999999999 4876.43V4899.530000000001 " fill="#43619c" fill-opacity="1" transform="matrix(1,0,0,1,-675,-4875)"></path></svg>