<svg style="opacity: 0.03;" id="SvgjsSvg1010" xmlns="http://www.w3.org/2000/svg" version="1.1" xmlns:xlink="http://www.w3.org/1999/xlink" xmlns:svgjs="http://svgjs.com/svgjs" width="1231" height="7070" viewBox="0 0 1231 7070"><title>grid</title><desc>Created with Avocode.</desc><defs id="SvgjsDefs1011"></defs><path id="SvgjsPath1012" d="M481.5 56V7124.37 " fill-opacity="0" fill="#ffffff" stroke-dasharray="0" stroke-linejoin="miter" stroke-linecap="square" stroke-opacity="1" stroke="#000000" stroke-miterlimit="50" stroke-width="1" transform="matrix(1,0,0,1,-104.5,-55.5)"></path><path id="SvgjsPath1013" d="M268.5 56V7124.37 " fill-opacity="0" fill="#ffffff" stroke-dasharray="0" stroke-linejoin="miter" stroke-linecap="square" stroke-opacity="1" stroke="#000000" stroke-miterlimit="50" stroke-width="1" transform="matrix(1,0,0,1,-104.5,-55.5)"></path><path id="SvgjsPath1014" d="M105.5 56V7124.37 " fill-opacity="0" fill="#ffffff" stroke-dasharray="0" stroke-linejoin="miter" stroke-linecap="square" stroke-opacity="1" stroke="#000000" stroke-miterlimit="50" stroke-width="1" transform="matrix(1,0,0,1,-104.5,-55.5)"></path><path id="SvgjsPath1015" d="M318.5 56V7124.37 " fill-opacity="0" fill="#ffffff" stroke-dasharray="0" stroke-linejoin="miter" stroke-linecap="square" stroke-opacity="1" stroke="#000000" stroke-miterlimit="50" stroke-width="1" transform="matrix(1,0,0,1,-104.5,-55.5)"></path><path id="SvgjsPath1016" d="M531.5 56V7124.37 " fill-opacity="0" fill="#ffffff" stroke-dasharray="0" stroke-linejoin="miter" stroke-linecap="square" stroke-opacity="1" stroke="#000000" stroke-miterlimit="50" stroke-width="1" transform="matrix(1,0,0,1,-104.5,-55.5)"></path><path id="SvgjsPath1017" d="M745.5 56V7124.37 " fill-opacity="0" fill="#ffffff" stroke-dasharray="0" stroke-linejoin="miter" stroke-linecap="square" stroke-opacity="1" stroke="#000000" stroke-miterlimit="50" stroke-width="1" transform="matrix(1,0,0,1,-104.5,-55.5)"></path><path id="SvgjsPath1018" d="M958.5 56V7124.37 " fill-opacity="0" fill="#ffffff" stroke-dasharray="0" stroke-linejoin="miter" stroke-linecap="square" stroke-opacity="1" stroke="#000000" stroke-miterlimit="50" stroke-width="1" transform="matrix(1,0,0,1,-104.5,-55.5)"></path><path id="SvgjsPath1019" d="M1171.5 56V7124.37 " fill-opacity="0" fill="#ffffff" stroke-dasharray="0" stroke-linejoin="miter" stroke-linecap="square" stroke-opacity="1" stroke="#000000" stroke-miterlimit="50" stroke-width="1" transform="matrix(1,0,0,1,-104.5,-55.5)"></path><path id="SvgjsPath1020" d="M909.5 56V7124.37 " fill-opacity="0" fill="#ffffff" stroke-dasharray="0" stroke-linejoin="miter" stroke-linecap="square" stroke-opacity="1" stroke="#000000" stroke-miterlimit="50" stroke-width="1" transform="matrix(1,0,0,1,-104.5,-55.5)"></path><path id="SvgjsPath1021" d="M695.5 56V7124.37 " fill-opacity="0" fill="#ffffff" stroke-dasharray="0" stroke-linejoin="miter" stroke-linecap="square" stroke-opacity="1" stroke="#000000" stroke-miterlimit="50" stroke-width="1" transform="matrix(1,0,0,1,-104.5,-55.5)"></path><path id="SvgjsPath1022" d="M1334.5 56V7124.37 " fill-opacity="0" fill="#ffffff" stroke-dasharray="0" stroke-linejoin="miter" stroke-linecap="square" stroke-opacity="1" stroke="#000000" stroke-miterlimit="50" stroke-width="1" transform="matrix(1,0,0,1,-104.5,-55.5)"></path><path id="SvgjsPath1023" d="M1122.5 56V7124.37 " fill-opacity="0" fill="#ffffff" stroke-dasharray="0" stroke-linejoin="miter" stroke-linecap="square" stroke-opacity="1" stroke="#000000" stroke-miterlimit="50" stroke-width="1" transform="matrix(1,0,0,1,-104.5,-55.5)"></path></svg>