<svg id="SvgjsSvg1008" xmlns="http://www.w3.org/2000/svg" version="1.1" xmlns:xlink="http://www.w3.org/1999/xlink" xmlns:svgjs="http://svgjs.com/svgjs" width="27" height="23" viewBox="0 0 27 23"><title>Twitter</title><desc>Created with Avocode.</desc><defs id="SvgjsDefs1009"></defs><path id="SvgjsPath1010" d="M778.44 4878.41C777.4000000000001 4879.05 776.2600000000001 4879.51 775.0300000000001 4879.76C774.0500000000001 4878.68 772.6600000000001 4878 771.1100000000001 4878C768.1500000000001 4878 765.7500000000001 4880.5 765.7500000000001 4883.57C765.7500000000001 4884.009999999999 765.7900000000001 4884.429999999999 765.8900000000001 4884.84C761.4300000000001 4884.610000000001 757.4700000000001 4882.39 754.82 4879.02C754.36 4879.84 754.09 4880.8 754.09 4881.820000000001C754.09 4883.750000000001 755.0400000000001 4885.460000000001 756.48 4886.460000000001C755.6 4886.430000000001 754.78 4886.180000000001 754.0500000000001 4885.770000000001V4885.830000000002C754.0500000000001 4888.530000000002 755.9000000000001 4890.790000000002 758.36 4891.300000000002C757.91 4891.430000000002 757.4300000000001 4891.490000000002 756.94 4891.490000000002C756.6 4891.490000000002 756.2600000000001 4891.460000000002 755.9300000000001 4891.4000000000015C756.6200000000001 4893.6100000000015 758.6 4895.220000000001 760.95 4895.260000000001C759.11 4896.760000000001 756.7900000000001 4897.6500000000015 754.2800000000001 4897.6500000000015C753.8500000000001 4897.6500000000015 753.4200000000001 4897.630000000001 753.0000000000001 4897.5700000000015C755.3800000000001 4899.1500000000015 758.2000000000002 4900.080000000002 761.2300000000001 4900.080000000002C771.1000000000001 4900.080000000002 776.5000000000001 4891.590000000002 776.5000000000001 4884.220000000002C776.5000000000001 4883.980000000002 776.5000000000001 4883.7400000000025 776.4900000000001 4883.500000000002C777.5400000000001 4882.710000000002 778.4500000000002 4881.730000000001 779.1600000000001 4880.6100000000015C778.2 4881.060000000001 777.1700000000001 4881.3600000000015 776.08 4881.490000000002C777.19 4880.800000000002 778.0400000000001 4879.710000000002 778.44 4878.410000000002 " fill="#24a9e6" fill-opacity="1" transform="matrix(1,0,0,1,-753,-4878)"></path></svg>